<svg width="1221" height="618" viewBox="0 0 1221 618" fill="none" xmlns="http://www.w3.org/2000/svg">
<path d="M338.599 287L356.999 305C365.529 343.67 369.799 368.47 369.799 379.4C369.799 391.14 358.199 399.14 334.999 403.4C324.859 405.27 315.659 406.47 307.399 407L306.599 410.6L318.199 515.8L314.999 539C298.459 540.06 278.459 544.73 254.999 553L254.599 552.6C230.599 561.13 211.399 565.4 196.999 565.4C192.729 565.4 188.999 563.8 185.799 560.6L170.599 545.4C158.859 540.33 152.199 524.73 150.599 498.6L145.799 425.4C144.999 414.2 144.599 407.54 144.599 405.4H111.799C101.399 405.4 87.2592 403.94 69.3992 401C48.5992 397.54 32.5992 392.07 21.3992 384.6L4.59921 367.8C3.26921 367.27 1.79922 366.34 0.199219 365C0.999219 360.2 1.53919 356.74 1.79919 354.6C3.93919 342.87 5.39922 334.87 6.19922 330.6L8.59921 315.8C11.7992 295.54 14.8592 277.67 17.7992 262.2C27.6592 208.07 38.0592 177.4 48.9992 170.2V171C61.5292 164.6 90.7292 159.67 136.599 156.2C136.599 156.47 136.459 156.87 136.199 157.4V158.2L149.799 172.2C149.259 164.74 148.999 159.54 148.999 156.6V144.6C154.859 144.07 164.999 142.07 179.399 138.6C192.459 135.4 202.729 133.8 210.199 133.8C217.399 131.94 223.129 130.74 227.399 130.2V130.6L231.799 129.8C243.529 127.67 251.399 126.6 255.399 126.6H264.199C265.259 128.47 265.929 129.94 266.199 131L283.399 147.8C292.199 163.8 296.599 184.47 296.599 209.8V217C296.599 220.47 296.399 225.67 295.999 232.6C295.599 239.54 295.399 244.74 295.399 248.2V257.8C295.399 261.54 295.329 265.14 295.199 268.6C295.059 272.07 295.129 275.54 295.399 279L338.599 287ZM328.199 295C302.859 291.8 288.999 290.2 286.599 290.2C275.399 290.2 268.999 289.8 267.399 289C265.529 275.4 264.599 258.34 264.599 237.8V227.8C264.599 223.54 264.799 217.2 265.199 208.8C265.599 200.4 265.799 194.07 265.799 189.8C265.799 166.34 262.859 149.27 256.999 138.6C254.859 138.07 239.399 140.47 210.599 145.8C204.459 145.8 196.199 147.27 185.799 150.2C173.799 153.4 165.529 155.27 160.999 155.8C160.729 156.07 161.799 169.27 164.199 195.4C166.859 224.47 168.199 245.67 168.199 259C168.199 261.4 166.459 271.27 162.999 288.6L139.799 283.8C128.059 281.4 118.329 279.27 110.599 277.4L122.999 169C85.3992 171.67 62.3292 175.94 53.7992 181.8C46.3292 186.87 38.3292 214.47 29.7992 264.6L13.3992 359.8C18.9992 363.54 31.5292 367 50.9992 370.2C68.5992 373.14 82.1992 374.6 91.7992 374.6H150.199C153.659 379.14 155.929 390.87 156.999 409.8L157.799 424.6C159.929 463 161.529 487.26 162.599 497.4C165.259 522.2 170.059 534.6 176.999 534.6C190.059 534.6 208.199 530.6 231.399 522.6C255.929 514.33 273.929 509.8 285.399 509L287.399 495.4L275.799 389.8L278.199 376.6C289.929 376.07 301.529 374.74 312.999 372.6C330.329 369.4 338.999 365 338.999 359.4C338.999 348.47 335.399 327 328.199 295ZM144.199 273L153.799 274.6C155.399 265.8 156.199 260.6 156.199 259C156.199 248.07 154.859 228.2 152.199 199.4L144.199 273Z" fill="#53ADFF"/>
<path d="M447.398 497.8C446.328 496.73 445.528 496.06 444.998 495.8C402.598 460.6 381.398 415.27 381.398 359.8C381.398 292.34 408.328 235.4 462.198 189C513.128 145 572.598 123 640.598 123C692.328 123 735.258 144.07 769.398 186.2L774.198 191C817.658 234.47 839.398 290.2 839.398 358.2C839.398 423.54 816.458 475 770.598 512.6C727.928 547.8 673.258 565.4 606.598 565.4C551.928 565.4 504.858 548.46 465.398 514.6L465.798 515C460.998 511 456.328 506.73 451.798 502.2L447.398 497.8ZM764.998 200.2C732.728 156.74 691.258 135 640.598 135C575.528 135 518.728 155.94 470.198 197.8C418.998 242.07 393.398 296.07 393.398 359.8C393.398 411.27 412.998 453.67 452.198 487C489.528 518.73 534.328 534.6 586.598 534.6C650.328 534.6 702.458 518.06 742.998 485C786.728 449.54 808.598 400.6 808.598 338.2C808.598 285.14 794.058 239.14 764.998 200.2ZM669.398 396.2C644.598 415.14 617.128 424.6 586.998 424.6C565.398 424.6 544.798 415.2 525.198 396.4C505.598 377.6 495.798 357.54 495.798 336.2C495.798 309.54 506.058 284.54 526.598 261.2C547.128 237.87 570.598 226.2 596.998 226.2C627.398 226.2 653.128 234.34 674.198 250.6C697.658 268.47 709.398 292.07 709.398 321.4C709.398 350.74 696.058 375.67 669.398 396.2ZM683.398 276.6C663.658 263.8 641.528 257.27 616.998 257C593.798 257 572.928 267.67 554.398 289C535.858 310.34 526.598 332.74 526.598 356.2C526.598 368.47 530.598 380.34 538.598 391.8C554.328 405.67 570.458 412.6 586.998 412.6C613.928 412.6 638.598 404.34 660.998 387.8C685.258 369.67 697.398 347.54 697.398 321.4C697.398 304.6 692.728 289.67 683.398 276.6Z" fill="#53ADFF"/>
<path d="M1189.39 287L1207.79 305C1216.32 343.67 1220.59 368.47 1220.59 379.4C1220.59 391.14 1208.99 399.14 1185.79 403.4C1175.65 405.27 1166.45 406.47 1158.19 407L1157.39 410.6L1168.99 515.8L1165.79 539C1149.25 540.06 1129.25 544.73 1105.79 553L1105.39 552.6C1081.39 561.13 1062.19 565.4 1047.79 565.4C1043.52 565.4 1039.79 563.8 1036.59 560.6L1021.39 545.4C1009.65 540.33 1002.99 524.73 1001.39 498.6L996.588 425.4C995.788 414.2 995.388 407.54 995.388 405.4H962.588C952.188 405.4 938.048 403.94 920.188 401C899.388 397.54 883.388 392.07 872.188 384.6L855.388 367.8C854.058 367.27 852.588 366.34 850.988 365C851.788 360.2 852.328 356.74 852.588 354.6C854.728 342.87 856.188 334.87 856.988 330.6L859.388 315.8C862.588 295.54 865.648 277.67 868.588 262.2C878.448 208.07 888.848 177.4 899.788 170.2V171C912.318 164.6 941.518 159.67 987.388 156.2C987.388 156.47 987.248 156.87 986.988 157.4V158.2L1000.59 172.2C1000.05 164.74 999.788 159.54 999.788 156.6V144.6C1005.65 144.07 1015.79 142.07 1030.19 138.6C1043.25 135.4 1053.52 133.8 1060.99 133.8C1068.19 131.94 1073.92 130.74 1078.19 130.2V130.6L1082.59 129.8C1094.32 127.67 1102.19 126.6 1106.19 126.6H1114.99C1116.05 128.47 1116.72 129.94 1116.99 131L1134.19 147.8C1142.99 163.8 1147.39 184.47 1147.39 209.8V217C1147.39 220.47 1147.19 225.67 1146.79 232.6C1146.39 239.54 1146.19 244.74 1146.19 248.2V257.8C1146.19 261.54 1146.12 265.14 1145.99 268.6C1145.85 272.07 1145.92 275.54 1146.19 279L1189.39 287ZM1178.99 295C1153.65 291.8 1139.79 290.2 1137.39 290.2C1126.19 290.2 1119.79 289.8 1118.19 289C1116.32 275.4 1115.39 258.34 1115.39 237.8V227.8C1115.39 223.54 1115.59 217.2 1115.99 208.8C1116.39 200.4 1116.59 194.07 1116.59 189.8C1116.59 166.34 1113.65 149.27 1107.79 138.6C1105.65 138.07 1090.19 140.47 1061.39 145.8C1055.25 145.8 1046.99 147.27 1036.59 150.2C1024.59 153.4 1016.32 155.27 1011.79 155.8C1011.52 156.07 1012.59 169.27 1014.99 195.4C1017.65 224.47 1018.99 245.67 1018.99 259C1018.99 261.4 1017.25 271.27 1013.79 288.6L990.588 283.8C978.848 281.4 969.118 279.27 961.388 277.4L973.788 169C936.188 171.67 913.118 175.94 904.588 181.8C897.118 186.87 889.118 214.47 880.588 264.6L864.188 359.8C869.788 363.54 882.318 367 901.788 370.2C919.388 373.14 932.988 374.6 942.588 374.6H1000.99C1004.45 379.14 1006.72 390.87 1007.79 409.8L1008.59 424.6C1010.72 463 1012.32 487.26 1013.39 497.4C1016.05 522.2 1020.85 534.6 1027.79 534.6C1040.85 534.6 1058.99 530.6 1082.19 522.6C1106.72 514.33 1124.72 509.8 1136.19 509L1138.19 495.4L1126.59 389.8L1128.99 376.6C1140.72 376.07 1152.32 374.74 1163.79 372.6C1181.12 369.4 1189.79 365 1189.79 359.4C1189.79 348.47 1186.19 327 1178.99 295ZM994.988 273L1004.59 274.6C1006.19 265.8 1006.99 260.6 1006.99 259C1006.99 248.07 1005.65 228.2 1002.99 199.4L994.988 273Z" fill="#53ADFF"/>
<g clip-path="url(#clip0_4836_8834)">
<path d="M151.499 611.99C183.489 611.99 209.422 605.139 209.422 596.688C209.422 588.237 183.489 581.386 151.499 581.386C119.509 581.386 93.5762 588.237 93.5762 596.688C93.5762 605.139 119.509 611.99 151.499 611.99Z" fill="#E5E5E5"/>
<path d="M135.098 575.595C135.098 575.595 135.44 581.101 134.565 583.028C133.766 584.765 125.774 585.544 123.034 588.989C122.082 590.309 124.451 591.353 126.839 590.888C129.808 590.347 133.442 592.976 134.689 594.467C134.995 594.833 135.375 595.132 135.804 595.344C136.232 595.556 136.701 595.677 137.179 595.698C137.657 595.72 138.134 595.642 138.58 595.469C139.026 595.296 139.431 595.032 139.769 594.695C141.225 593.214 142.624 591.097 148.075 591.382C153.356 591.647 151.462 589.35 151.082 589.018C148.937 587.18 146.487 585.731 143.842 584.737C141.406 583.92 139.969 582.174 139.931 580.626C139.893 579.079 140.007 575.557 140.007 575.557L135.098 575.595Z" fill="#ED6D26"/>
<path d="M132.938 588.192C129.513 587.243 126.697 590.822 126.602 590.945H126.811C129.779 590.404 133.414 593.033 134.66 594.524C134.771 594.642 134.888 594.753 135.012 594.856C135.212 594.505 135.65 588.989 132.938 588.192Z" fill="#D54D15"/>
<path d="M147.723 591.41C146.534 589.768 143.461 587.556 140.749 589.141C138.038 590.727 139.741 594.742 139.741 594.742C141.158 593.28 142.519 591.23 147.723 591.41Z" fill="#D54D15"/>
<path d="M134.965 581.405C136.704 580.365 138.362 579.194 139.922 577.902V577.816C139.922 576.611 139.979 575.567 139.979 575.567H135.098C135.214 577.513 135.17 579.466 134.965 581.405Z" fill="#D54D15"/>
<path d="M167.512 580.74C167.512 580.74 168.206 590.689 167.331 592.616C166.532 594.362 158.721 595.369 155.98 598.814C155.029 600.134 157.408 601.178 159.786 600.713C162.755 600.172 166.389 602.801 167.635 604.292C167.942 604.658 168.322 604.956 168.75 605.168C169.178 605.38 169.646 605.501 170.124 605.524C170.601 605.546 171.078 605.469 171.524 605.298C171.971 605.127 172.376 604.865 172.716 604.529C174.172 603.039 175.57 600.922 181.022 601.207C186.303 601.472 184.409 599.185 184.029 598.843C181.885 597.006 179.434 595.56 176.788 594.571C174.362 593.745 172.906 592.454 172.887 590.451C172.887 588.894 173.534 579.62 173.534 579.62L167.512 580.74Z" fill="#ED6D26"/>
<path d="M165.885 598.017C162.46 597.068 159.644 600.647 159.549 600.77H159.758C162.727 600.229 166.361 602.858 167.607 604.349C167.718 604.467 167.835 604.578 167.959 604.681C168.207 604.33 168.597 598.814 165.885 598.017Z" fill="#D54D15"/>
<path d="M180.671 601.235C179.481 599.593 176.408 597.381 173.697 598.966C170.985 600.552 172.688 604.577 172.688 604.577C174.106 603.105 175.476 601.055 180.671 601.235Z" fill="#D54D15"/>
<path d="M167.712 590.176L173.173 584.528C173.334 581.993 173.506 579.62 173.506 579.62L167.512 580.702C167.512 580.702 167.921 586.588 167.712 590.176Z" fill="#D54D15"/>
<path d="M141.092 471.155C141.092 471.155 135.07 492.514 126.65 501.532C116.422 512.525 103.986 548.465 127.201 566.9C127.201 566.9 133.861 580.845 142.129 574.703C142.129 574.703 149.36 578.604 160.853 575.652C160.853 575.652 165.829 582.155 171.395 581.091C176.961 580.028 179.444 567.621 179.444 566.434C179.444 566.434 196.313 553.239 191.575 528.178C186.837 503.117 172.08 500.839 167.257 470.946L141.092 471.155Z" fill="#FFD363"/>
<path d="M126.649 501.551C126.649 501.551 124.071 500.374 115.061 510.655C107.24 519.578 102.692 522.701 104.062 537.624C105.356 551.986 105.642 551.493 107.868 554.644C110.095 557.796 115.917 562.372 120.979 551.493C126.041 540.614 133.129 502.026 126.649 501.551Z" fill="#FFD363"/>
<path d="M118.172 555.973C118.873 557.338 119.672 558.651 120.56 559.903C132.805 534.092 129.218 508.281 129.218 508.281C129.637 519.929 124.737 543.405 120.979 551.483C120.269 553.109 119.324 554.622 118.172 555.973Z" fill="#F7C442"/>
<path d="M106.64 520.964C106.64 520.964 110.36 523.128 114.013 521.59C117.667 520.053 121.101 518.163 121.625 518.458C122.148 518.752 116.363 527.846 106.23 521.676L106.64 520.964Z" fill="#F7C442"/>
<path d="M104.004 536.893C105.848 537.069 107.702 537.097 109.551 536.978C111.168 536.722 118.808 534.216 119.208 534.396C119.607 534.577 115.821 541.041 104.118 538.193L104.004 536.893Z" fill="#F7C442"/>
<path d="M179.501 504.541C179.501 504.541 181.984 503.431 190.651 513.085C198.177 521.439 202.525 524.362 201.241 538.336C200.004 551.778 199.719 551.322 197.587 554.274C195.456 557.226 189.843 561.508 184.971 551.322C180.1 541.136 173.269 504.987 179.501 504.541Z" fill="#FFD363"/>
<path d="M187.845 555.689C187.191 556.982 186.447 558.229 185.619 559.419C173.83 535.251 177.056 510.844 177.056 510.844C176.656 521.761 181.375 543.718 184.991 551.303C185.733 552.89 186.694 554.366 187.845 555.689Z" fill="#F7C442"/>
<path d="M198.757 522.72C198.757 522.72 195.179 524.742 191.669 523.299C188.158 521.856 184.837 520.09 184.324 520.366C183.81 520.641 189.395 529.166 199.147 523.384L198.757 522.72Z" fill="#F7C442"/>
<path d="M201.298 537.633C199.524 537.795 197.739 537.82 195.961 537.709C194.4 537.472 187.046 535.127 186.665 535.288C186.285 535.45 189.929 541.535 201.184 538.886L201.298 537.633Z" fill="#F7C442"/>
<path d="M141.092 471.155C139.293 477.234 137.068 483.178 134.432 488.945C141.187 489.891 148.068 488.646 154.06 485.394C163.774 479.955 168.835 478.578 168.835 478.578C168.236 476.243 167.713 473.718 167.266 470.984L141.092 471.155Z" fill="#F7C442"/>
<path d="M140.844 333.015C140.844 333.015 147.827 342.119 147.275 347.539H153.793C153.793 347.539 149.492 338.104 140.844 333.015Z" fill="#F7C442"/>
<path d="M146.648 329C146.648 329 156.239 340.581 152.566 347.558L162.166 348.024C162.166 348.024 157.742 335.74 146.648 329Z" fill="#FFD363"/>
<path d="M150.681 344.692C150.681 344.692 120.987 345.641 108.666 367.38C96.3453 389.118 92.0163 406.87 85.2897 419.685C81.0653 427.706 72.7878 442.648 93.1865 454.353C113.585 466.057 160.158 486.192 204.066 459.099C228.08 443.977 225.236 429.795 217.339 416.239C209.442 402.683 202.801 380.309 200.594 375.259C198.386 370.208 187.007 344.008 150.681 344.692Z" fill="#FFD363"/>
<path d="M187.997 448.163C150.682 434.712 118.248 448.163 118.248 448.163C120.589 436.99 139.465 433.374 143.233 427.393C144.233 425.692 145.624 424.252 147.291 423.192C148.959 422.132 150.855 421.484 152.823 421.299C152.823 421.299 158.532 420.349 163.422 427.393C168.094 434.114 182.945 434.655 187.997 448.163Z" fill="#ED6D26"/>
<path d="M126.268 448.04C126.268 448.04 138.769 461.605 153.212 461.605C167.655 461.605 180.147 447.784 180.147 447.784C180.147 447.784 164.277 438.367 153.212 438.12C142.147 437.873 127.114 445.961 126.268 448.04Z" fill="#ED6D26"/>
<path d="M118.248 448.163C119.742 446.588 153.955 431.076 187.997 448.163C187.997 448.163 188.787 449.768 187.046 449.967C184.277 450.28 158.646 439.003 120.351 449.967C118.248 450.821 118.248 448.163 118.248 448.163Z" fill="#D54D15"/>
<path d="M149.051 430.721C149.646 429.135 149.633 427.664 149.023 427.436C148.413 427.208 147.436 428.309 146.841 429.895C146.246 431.481 146.258 432.952 146.869 433.18C147.479 433.407 148.456 432.307 149.051 430.721Z" fill="#312415"/>
<path d="M159.613 433.142C160.228 432.96 160.345 431.533 159.875 429.955C159.405 428.377 158.526 427.246 157.911 427.428C157.297 427.61 157.18 429.037 157.65 430.615C158.12 432.193 158.999 433.325 159.613 433.142Z" fill="#312415"/>
<path d="M114.936 419.789C119.292 419.789 122.824 416.266 122.824 411.92C122.824 407.574 119.292 404.05 114.936 404.05C110.58 404.05 107.049 407.574 107.049 411.92C107.049 416.266 110.58 419.789 114.936 419.789Z" fill="#322516"/>
<path d="M188.606 419.789C192.962 419.789 196.493 416.266 196.493 411.92C196.493 407.574 192.962 404.05 188.606 404.05C184.25 404.05 180.719 407.574 180.719 411.92C180.719 416.266 184.25 419.789 188.606 419.789Z" fill="#322516"/>
</g>
<g clip-path="url(#clip1_4836_8834)">
<path d="M880.84 607C912.593 607 938.333 600.15 938.333 591.7C938.333 583.251 912.593 576.401 880.84 576.401C849.087 576.401 823.346 583.251 823.346 591.7C823.346 600.15 849.087 607 880.84 607Z" fill="#E4E5E3"/>
<path d="M859.676 563.844C859.676 563.844 860.422 574.578 859.477 576.648C858.628 578.546 850.26 579.628 847.323 583.339C846.322 584.772 847.88 585.322 850.525 585.038C853.736 584.696 852.329 588.198 853.254 590.125C854.18 592.052 856.248 592.327 858.694 590.381C860.441 588.986 864.124 584.772 870.801 587.287C875.523 589.071 875.154 586.338 874.909 585.854C873.492 583.208 871.566 580.872 869.242 578.982C867.08 577.293 865.578 577.426 865.559 575.271C865.559 573.591 866.126 562.677 866.126 562.677L859.676 563.844Z" fill="#ED6D26"/>
<path d="M865.89 565.704C866.07 562.961 866.391 559.155 866.391 559.155H859.289C859.289 559.155 859.875 566.093 859.95 570.032L865.89 565.704Z" fill="#D54D15"/>
<path d="M894.665 568.286C894.665 568.286 895.543 583.718 894.505 585.996C893.56 588.065 884.39 589.261 881.17 593.333C880.075 594.899 881.784 595.516 884.683 595.231C888.206 594.851 886.657 598.686 887.686 600.802C888.716 602.919 890.963 603.222 893.645 601.087C895.534 599.559 899.604 594.937 906.933 597.689C912.136 599.654 911.711 596.655 911.437 596.114C909.873 593.212 907.751 590.65 905.195 588.578C902.815 586.68 901.172 586.879 901.144 584.506C901.144 582.665 901.72 567.033 901.72 567.033L894.665 568.286Z" fill="#ED6D26"/>
<path d="M902.088 563.578H894.297C894.297 563.578 894.845 569.766 894.92 574.085L901.625 569.51L902.088 563.578Z" fill="#D54D15"/>
<path d="M908.576 551.8C907.396 551.933 905.923 565.524 899.982 566.596C894.042 567.669 888.744 561.111 888.744 561.111C876.467 564.091 868.79 560.162 868.79 560.162C859.95 566.369 852.886 552.293 852.886 552.293C831.005 532.286 841.044 506.186 845.454 493.069C849.571 480.873 865.173 457.496 865.173 457.496L897.801 458.113C897.801 458.113 902.098 510.181 952.981 512.051C952.981 512.013 955.163 546.627 908.576 551.8Z" fill="#FFD363"/>
<path d="M854.228 582.693C853.066 581.526 849.638 585.095 849.629 585.104C849.912 585.104 850.205 585.104 850.526 585.038C852.273 584.857 852.651 585.806 852.783 587.031C852.783 587.031 855.399 583.861 854.228 582.693Z" fill="#D54D15"/>
<path d="M863.255 583.12C860.346 584.003 861.026 588.435 861.026 588.435C862.052 587.655 863.223 587.089 864.471 586.771C865.718 586.453 867.016 586.39 868.288 586.585C868.383 586.632 866.173 582.285 863.255 583.12Z" fill="#D54D15"/>
<path d="M867.336 505.293C867.336 505.293 876.223 557.997 931.62 536.538C931.62 536.538 933.877 516.151 905.177 501.867C905.177 501.867 928.702 517.679 926.794 533.52C926.832 533.558 883.268 552.806 867.336 505.293Z" fill="#F7C442"/>
<path d="M893.977 522.748C893.977 522.748 901.107 540.183 928.494 533.558C928.494 533.558 903.911 535.741 893.977 522.748Z" fill="#F7C442"/>
<path d="M852.32 478.529C852.32 478.529 861.216 482.828 882.654 473.223C893.136 468.478 899.539 467.32 899.539 467.32L897.802 458.075L865.173 457.458C865.173 457.458 853.595 475.235 852.32 478.529Z" fill="#F7C442"/>
<path d="M888.744 592.612C887.469 591.33 883.711 595.25 883.701 595.26C884.013 595.26 884.334 595.26 884.646 595.193C886.534 594.984 886.978 596.028 887.12 597.367C887.12 597.367 890 593.902 888.744 592.612Z" fill="#D54D15"/>
<path d="M898.651 593.134C895.459 594.083 896.205 598.961 896.205 598.961C897.329 598.106 898.614 597.486 899.981 597.139C901.349 596.792 902.772 596.724 904.166 596.939C904.27 596.949 901.852 592.175 898.651 593.134Z" fill="#D54D15"/>
<path d="M898.971 332.366C898.971 332.366 891.416 342.237 892.077 348.14H885.061C885.061 348.14 889.65 337.88 898.971 332.366Z" fill="#F7C442"/>
<path d="M892.719 328C892.719 328 882.378 340.566 886.335 348.14L876.004 348.653C876.004 348.653 880.716 335.308 892.719 328Z" fill="#FFD363"/>
<path d="M876.694 343.66C876.694 343.66 849.808 344.524 838.655 364.36C827.501 384.197 826.5 389.436 822.005 401.983C819.219 409.747 814.384 437.043 828.37 449.22C844.425 463.191 887.082 472.635 926.841 450.169C947.617 436.056 943.311 413.429 937.72 400.531C932.771 389.142 923.309 377.031 917.217 368.366C910.531 358.875 901.522 344.315 876.694 343.66Z" fill="#FFD363"/>
<path d="M876.694 343.66C876.694 343.66 849.808 344.524 838.655 364.36C827.501 384.197 826.5 389.436 822.005 401.983C819.219 409.747 814.384 437.043 828.37 449.22C844.425 463.191 887.082 472.635 926.841 450.169C947.617 436.056 943.311 413.429 937.72 400.531C932.771 389.142 923.309 377.031 917.217 368.366C910.531 358.875 901.522 344.315 876.694 343.66Z" fill="#FFD363"/>
<path d="M887.5 410.836C890.405 409.109 890.769 404.327 888.313 400.153C885.857 395.98 881.512 393.996 878.607 395.722C875.702 397.449 875.339 402.232 877.794 406.405C880.25 410.578 884.596 412.562 887.5 410.836Z" fill="#312415"/>
<path d="M839.485 403.465C842.022 400.208 842.374 396.227 840.272 394.573C838.169 392.918 834.408 394.217 831.871 397.473C829.334 400.729 828.982 404.71 831.084 406.365C833.187 408.019 836.948 406.721 839.485 403.465Z" fill="#312415"/>
<path d="M851.697 441.874C829.032 432.174 767.09 445.215 820.287 420.804C846.814 408.627 852.32 409.889 852.32 409.889C852.32 409.889 858.789 409.889 863.332 420.462C865.626 425.834 872.001 425.806 876.043 434.642C880.765 444.921 866.41 454.364 866.41 454.364C866.41 454.364 855.389 462.489 820.797 458.161C804.062 455.276 837.531 441.77 851.697 441.874Z" fill="#ED6D26"/>
<path d="M852.876 441.352L836.019 440.232C828.048 441.703 817.046 450.046 816.338 454.991C816.423 454.991 836.312 454.402 852.876 441.352Z" fill="#D54D15"/>
<path d="M847.305 425.898C848.135 425.558 848.251 423.905 847.563 422.206C846.875 420.507 845.644 419.404 844.813 419.744C843.982 420.084 843.866 421.737 844.554 423.436C845.242 425.136 846.474 426.238 847.305 425.898Z" fill="#312415"/>
<path d="M868.799 443.089C854.303 440.014 789.414 441.333 800.199 432.174C800.199 432.212 802.456 428.681 868.799 443.089Z" fill="#D54D15"/>
</g>
<g clip-path="url(#clip2_4836_8834)">
<path d="M487.028 165.09C487.028 165.09 473.538 179.678 476.559 183.368C479.581 187.057 487.199 195.009 486.668 201.278C486.254 202.791 488.629 206.31 486.29 209.337C483.952 212.364 479.383 204.591 473.798 204.457C468.213 204.322 465.704 203.866 464.346 195.251C462.988 186.636 462.116 183.887 460.308 182.042C457.988 179.66 461.522 175.048 466.154 175.774C470.786 176.499 475.147 165.422 475.147 165.422L487.028 165.09Z" fill="#ED6D26"/>
<path d="M486.399 198.914C486.399 198.914 483.908 196.89 483.26 197.848C482.613 198.806 486.624 201.86 486.624 201.86C486.675 200.872 486.599 199.882 486.399 198.914Z" fill="#D54D15"/>
<path d="M477.675 199.782C481.084 201.636 480.328 207.358 480.328 207.358C478.404 205.952 476.191 204.502 473.799 204.439C473.107 204.439 472.468 204.439 471.865 204.358C471.838 204.358 474.267 197.929 477.675 199.782Z" fill="#D54D15"/>
<path d="M476.516 162.126C476.516 162.126 461.641 172.415 460.795 178.63C460.175 183.108 459.222 194.749 453.798 197.266C452.333 197.633 450.894 201.331 447.08 200.758C443.267 200.185 446.793 192.609 443.564 187.782C440.335 182.956 439.364 180.744 445.363 175.344C450.129 171.072 449.527 172.21 450.084 170.866C450.984 168.708 450.201 167.365 456.38 166.048C460.948 165.063 470.283 155.992 470.463 155.302L476.516 162.126Z" fill="#ED6D26"/>
<path d="M455.569 195.905C455.569 195.905 455.713 192.824 454.561 192.726C453.41 192.627 453.32 197.499 453.32 197.499C454.144 197.079 454.901 196.542 455.569 195.905Z" fill="#D54D15"/>
<path d="M449.651 188.875C450.191 192.663 445.101 194.74 445.101 194.74C445.101 192.43 444.948 189.851 443.563 187.782C443.167 187.182 442.798 186.618 442.475 186.09C442.475 186.09 449.121 185.087 449.651 188.875Z" fill="#D54D15"/>
<path d="M582.457 76.7214C582.457 76.7214 562.672 75.1811 545.827 75.1811C527.759 75.1811 473.475 67.2469 461.595 100.739C461.595 100.739 455.227 119.795 465.48 126.771C467.09 127.819 466.631 133.765 469.077 143.652C469.077 143.652 465.66 156.932 469.716 162.377C475.571 170.23 490.473 167.436 491.822 166.971C491.822 166.971 511.22 179.66 537.895 164.49C564.569 149.32 586.405 135.494 596.775 117.216L582.457 76.7214Z" fill="#FFD363"/>
<path d="M683.777 89.8227C683.777 89.8227 677.968 47.5009 662.013 36.8443C649.944 28.7848 630.842 19.2297 603.556 35.0533C576.27 50.877 554.578 98.2853 585.848 113.428C617.118 128.571 661.321 129.637 665.8 129.359C670.278 129.082 688.292 121.595 683.777 89.8227Z" fill="#FFD363"/>
<path d="M624.352 81.8735C624.352 81.8735 636.151 90.345 643.139 77.8975" stroke="#322516" stroke-width="3" stroke-miterlimit="10" stroke-linecap="round"/>
<path d="M650.583 11.0357C650.583 11.0357 639.368 17.4118 640.025 27.9788C640.681 38.5458 626.903 29.8235 626.903 29.8235C626.903 29.8235 623.36 14.3133 645.124 5C645.124 5 634.467 14.0088 636.346 21.746C636.346 21.746 640.258 15.9521 650.583 11.0357Z" fill="#FFD363"/>
<path d="M499.53 75.7005C499.53 75.7005 469.096 80.4467 452.764 73.1572C428.482 62.3305 457.477 122.357 465.472 126.807L499.53 75.7005Z" fill="#FFD363"/>
<path d="M524.9 141.843C518.47 121.139 524.945 112.515 534.631 108.485C523.309 112.775 513.946 122.545 519.342 147.583C521.141 156.037 522.94 163.577 527.005 169.371C530.647 168.157 534.159 166.588 537.491 164.687C531.778 158.004 527.494 150.231 524.9 141.843Z" fill="#F7C442"/>
<path d="M577.395 113.428C577.395 113.428 563.904 137.938 594.842 171.941C611.794 188.884 541.988 196.818 524.9 141.843C507.813 86.8674 577.395 113.428 577.395 113.428Z" fill="#FFD363"/>
<path d="M583.033 155.983C583.033 155.983 575.352 167.096 558.895 162.251C558.895 162.251 575.46 163.944 581.765 153.896C581.765 153.932 582.619 155.249 583.033 155.983Z" fill="#F7C442"/>
<path d="M575.46 137.195C575.46 137.195 566.376 151.64 541.689 144.744C541.689 144.744 567.123 148.174 574.92 133.935C575.025 135.033 575.205 136.122 575.46 137.195Z" fill="#F7C442"/>
<path d="M589.085 114.637C576.602 109.891 569.596 98.5897 572.627 88.345C568.715 101.205 574.381 112.578 591.873 124.488C593.797 122.275 595.438 119.832 596.757 117.216C595.866 116.894 589.958 114.969 589.085 114.637Z" fill="#F7C442"/>
<path d="M642.146 104.5C642.146 104.5 646.391 138.825 695.046 127.783L642.146 104.5Z" fill="#ED6D26"/>
<path d="M658.829 95.7151C660.599 95.3728 662.347 94.9242 664.063 94.3718C668.613 93.0644 678.677 89.8943 682.886 103.443C686.178 109.81 704.227 114.583 705.882 131.732C705.972 133.524 685.341 123.27 642.928 104.402C637.128 99.6374 649.817 95.9569 658.829 95.7151Z" fill="#ED6D26"/>
<path d="M705.838 131.374C690.307 121.067 693.077 119.58 644.881 102.127C644.382 101.924 643.931 101.619 643.558 101.232C643.185 100.845 642.897 100.384 642.713 99.8792C642.23 100.202 641.833 100.637 641.556 101.147C641.278 101.656 641.129 102.225 641.121 102.804C641.113 103.384 641.247 103.956 641.51 104.473C641.773 104.99 642.158 105.436 642.632 105.772C684.902 121.21 702.106 133.532 705.64 134.768C706.162 134.921 706.009 131.858 705.838 131.374Z" fill="#D54D15"/>
<path d="M668.655 101.275C669.812 100.301 670.359 99.0519 669.877 98.4856C669.396 97.9193 668.069 98.2502 666.912 99.2246C665.756 100.199 665.209 101.448 665.69 102.014C666.171 102.581 667.499 102.25 668.655 101.275Z" fill="#312415"/>
</g>
<defs>
<clipPath id="clip0_4836_8834">
<rect width="143" height="283" fill="white" transform="translate(80 329)"/>
</clipPath>
<clipPath id="clip1_4836_8834">
<rect width="154" height="279" fill="white" transform="translate(799 328)"/>
</clipPath>
<clipPath id="clip2_4836_8834">
<rect width="265" height="205" fill="white" transform="translate(441 5)"/>
</clipPath>
</defs>
</svg>
