<svg width="24" height="24" viewBox="0 0 24 24" fill="none" xmlns="http://www.w3.org/2000/svg">
<g id="ExclamationCircleOutlined" clip-path="url(#clip0_5473_12619)">
<path id="Vector" d="M12 0C5.37321 0 0 5.37321 0 12C0 18.6268 5.37321 24 12 24C18.6268 24 24 18.6268 24 12C24 5.37321 18.6268 0 12 0ZM12 21.9643C6.49821 21.9643 2.03571 17.5018 2.03571 12C2.03571 6.49821 6.49821 2.03571 12 2.03571C17.5018 2.03571 21.9643 6.49821 21.9643 12C21.9643 17.5018 17.5018 21.9643 12 21.9643Z" fill="white"/>
<path id="Vector_2" d="M10.7148 16.7143C10.7148 17.0553 10.8503 17.3823 11.0914 17.6234C11.3325 17.8645 11.6596 18 12.0006 18C12.3416 18 12.6686 17.8645 12.9097 17.6234C13.1508 17.3823 13.2863 17.0553 13.2863 16.7143C13.2863 16.3733 13.1508 16.0463 12.9097 15.8051C12.6686 15.564 12.3416 15.4286 12.0006 15.4286C11.6596 15.4286 11.3325 15.564 11.0914 15.8051C10.8503 16.0463 10.7148 16.3733 10.7148 16.7143ZM11.3577 13.7143H12.6434C12.7613 13.7143 12.8577 13.6179 12.8577 13.5V6.21429C12.8577 6.09643 12.7613 6 12.6434 6H11.3577C11.2398 6 11.1434 6.09643 11.1434 6.21429V13.5C11.1434 13.6179 11.2398 13.7143 11.3577 13.7143Z" fill="white"/>
</g>
<defs>
<clipPath id="clip0_5473_12619">
<rect width="24" height="24" fill="white"/>
</clipPath>
</defs>
</svg>
