<svg width="50" height="50" viewBox="0 0 50 50" fill="none" xmlns="http://www.w3.org/2000/svg">
<circle cx="25" cy="24.998" r="25" fill="#E8F4FF"/>
<path d="M34.7443 30.0147C33.5055 28.6725 32.0021 27.6013 30.329 26.8687C28.6558 26.136 26.849 25.7578 25.0225 25.7578C23.1959 25.7578 21.3892 26.136 19.716 26.8687C18.0428 27.6013 16.5395 28.6725 15.3007 30.0147C15.1094 30.2262 15.0024 30.5005 15 30.7857V35.4114C15.0041 35.7155 15.1277 36.0057 15.3441 36.2192C15.5606 36.4328 15.8524 36.5525 16.1564 36.5525H33.8885C34.1952 36.5525 34.4894 36.4306 34.7063 36.2137C34.9231 35.9969 35.045 35.7027 35.045 35.396V30.7703C35.0388 30.4904 34.9321 30.2222 34.7443 30.0147Z" fill="#1890FF"/>
<path d="M25.0217 23.7934C28.0022 23.7934 30.4184 21.3772 30.4184 18.3967C30.4184 15.4162 28.0022 13 25.0217 13C22.0412 13 19.625 15.4162 19.625 18.3967C19.625 21.3772 22.0412 23.7934 25.0217 23.7934Z" fill="#1890FF"/>
</svg>
