<svg width="50" height="50" viewBox="0 0 50 50" fill="none" xmlns="http://www.w3.org/2000/svg">
<circle cx="25" cy="24.998" r="25" fill="#E8F4FF"/>
<g opacity="0.85">
<path d="M19.4847 28.4906C18.7105 27.6517 17.7709 26.9823 16.7251 26.5244C15.6794 26.0665 14.5502 25.8301 13.4086 25.8301C12.267 25.8301 11.1378 26.0665 10.092 26.5244C9.0463 26.9823 8.10672 27.6517 7.33245 28.4906C7.21291 28.6228 7.14605 28.7943 7.14453 28.9725V31.8636C7.14707 32.0536 7.22433 32.235 7.3596 32.3684C7.49488 32.5019 7.67727 32.5767 7.86731 32.5767H18.9499C19.1416 32.5767 19.3254 32.5006 19.4609 32.365C19.5965 32.2295 19.6726 32.0456 19.6726 31.854V28.9629C19.6688 28.788 19.6021 28.6203 19.4847 28.4906Z" fill="#1890FF" fill-opacity="0.75"/>
<path d="M13.4081 24.6033C15.2709 24.6033 16.7811 23.0932 16.7811 21.2304C16.7811 19.3675 15.2709 17.8574 13.4081 17.8574C11.5453 17.8574 10.0352 19.3675 10.0352 21.2304C10.0352 23.0932 11.5453 24.6033 13.4081 24.6033Z" fill="#1890FF" fill-opacity="0.75"/>
</g>
<g opacity="0.85">
<path d="M40.9105 28.4906C40.1362 27.6517 39.1966 26.9823 38.1509 26.5244C37.1052 26.0665 35.976 25.8301 34.8344 25.8301C33.6928 25.8301 32.5636 26.0665 31.5178 26.5244C30.4721 26.9823 29.5325 27.6517 28.7582 28.4906C28.6387 28.6228 28.5718 28.7943 28.5703 28.9725V31.8636C28.5728 32.0536 28.6501 32.235 28.7854 32.3684C28.9207 32.5019 29.1031 32.5767 29.2931 32.5767H40.3756C40.5673 32.5767 40.7512 32.5006 40.8867 32.365C41.0223 32.2295 41.0984 32.0456 41.0984 31.854V28.9629C41.0946 28.788 41.0279 28.6203 40.9105 28.4906Z" fill="#1890FF" fill-opacity="0.75"/>
<path d="M34.8339 24.6033C36.6967 24.6033 38.2068 23.0932 38.2068 21.2304C38.2068 19.3675 36.6967 17.8574 34.8339 17.8574C32.9711 17.8574 31.4609 19.3675 31.4609 21.2304C31.4609 23.0932 32.9711 24.6033 34.8339 24.6033Z" fill="#1890FF" fill-opacity="0.75"/>
</g>
<g clip-path="url(#clip0_6467_20998)">
<path d="M34.6934 28.9117L34.6935 28.9117L34.6875 28.9052C33.3651 27.4724 31.7603 26.329 29.9742 25.5469C28.1881 24.7648 26.2594 24.361 24.3096 24.361C22.3598 24.361 20.4311 24.7648 18.645 25.5469C16.8589 26.329 15.2541 27.4724 13.9317 28.9052L13.9316 28.9052L13.9256 28.9119C13.5876 29.2856 13.3986 29.7704 13.3943 30.2742L13.3943 30.2742V30.2818V34.9075H13.3942L13.3943 34.9194C13.4015 35.4582 13.6206 35.9724 14.0041 36.3509C14.3877 36.7293 14.9048 36.9414 15.4435 36.9414C15.4436 36.9414 15.4436 36.9414 15.4436 36.9414H33.1756C33.7191 36.9414 34.2404 36.7255 34.6247 36.3412L33.9934 35.7098L34.6247 36.3412C35.009 35.9569 35.2249 35.4356 35.2249 34.8921V30.2663V30.2565L35.2247 30.2467C35.2139 29.7523 35.0253 29.2784 34.6934 28.9117Z" fill="#1890FF" stroke="#E8F4FF" stroke-width="1.78571"/>
<path d="M24.3088 24.1824C27.7825 24.1824 30.5984 21.3665 30.5984 17.8928C30.5984 14.4192 27.7825 11.6032 24.3088 11.6032C20.8352 11.6032 18.0193 14.4192 18.0193 17.8928C18.0193 21.3665 20.8352 24.1824 24.3088 24.1824Z" fill="#1890FF" stroke="#E8F4FF" stroke-width="1.78571"/>
</g>
<defs>
<clipPath id="clip0_6467_20998">
<rect width="28.5714" height="28.5714" fill="white" transform="translate(10.7148 10.7129)"/>
</clipPath>
</defs>
</svg>
