<?xml version="1.0" encoding="iso-8859-1"?>
<!-- Generator: Adobe Illustrator 19.0.0, SVG Export Plug-In . SVG Version: 6.00 Build 0)  -->
<svg version="1.1" id="Layer_1" xmlns="http://www.w3.org/2000/svg" xmlns:xlink="http://www.w3.org/1999/xlink" x="0px" y="0px"
	 viewBox="0 0 512 512" style="enable-background:new 0 0 512 512;" xml:space="preserve">
<path style="fill:#465F8C;" d="M380.34,76.896C380.34,39.431,321.994,7,254.792,7c-70.798,0-121.798,32.431-121.798,69.896
	c0,62.641-30,105.028-30,172.762c0,60.342,61.921,103.342,153,103.342s154-40,153-108C407.998,177.273,380.34,139.537,380.34,76.896
	z"/>
<path style="fill:#4687A0;" d="M376.021,72C367.939,32,327.53,8,254.792,8s-113.148,24-121.23,64s48.492,200,121.23,200
	S384.104,112,376.021,72z"/>
<path style="fill:#FFE150;" d="M257.994,504c-42,0-88.005-19.334-88.005-64c0-139.314,22.152-229.895,37.263-292.593
	c1.245-5.165,7.334-7.396,11.603-4.232C228.397,150.246,244.08,160,257.989,160c13.91,0,29.592-9.755,39.134-16.827
	c4.269-3.163,10.358-0.933,11.603,4.233c15.112,62.698,37.268,153.278,37.268,292.594C345.994,484.666,299.989,504,257.994,504z"/>
<path style="fill:#595966;" d="M257.599,464c-16.411,0-20.701,28.964-27.403,37.618c8.988,1.571,18.28,2.382,27.403,2.382
	c9.12,0,18.409-0.811,27.395-2.381C278.293,492.967,274.01,464,257.599,464z"/>
<path d="M156.278,96c-7.851,0-12,8.299-12,24s4.149,24,12,24s12-8.299,12-24S164.129,96,156.278,96z"/>
<path d="M356.278,96c-7.851,0-12,8.299-12,24s4.149,24,12,24s12-8.299,12-24S364.129,96,356.278,96z"/>
<path d="M400.824,158.873c-4.881-16.06-9.097-29.931-9.097-38.873c0-34.246-8.967-63.595-17.299-76.37
	C353.537,11.598,297.956,0.127,256.392,0.006C256.354,0.005,256.317,0,256.278,0h-0.01h-0.001c-0.09,0-0.182,0.002-0.271,0.002
	c-0.091,0-0.184-0.002-0.274-0.002c-0.038,0-0.075,0.005-0.112,0.006c-41.563,0.121-97.147,11.593-118.037,43.624
	c-8.332,12.775-17.299,42.124-17.299,76.37c0,8.942-4.216,22.813-9.097,38.873c-8.014,26.365-17.987,59.177-14.857,89.937
	c3.343,32.854,13.795,57.92,31.065,74.503c14.264,13.697,29.366,17.765,35.814,19.502c0.286,0.077,0.594,0.16,0.888,0.241
	c-2.379,29.498-3.813,61.727-3.813,96.944c0,23.308,11.075,42.515,32.028,55.544c17.064,10.61,39.782,16.455,63.97,16.456
	c0,0,0.001,0,0.002,0c0,0,0.001,0,0.002,0s0.001,0,0.002,0c0,0,0.001,0,0.002,0c24.188-0.001,46.906-5.846,63.97-16.456
	c20.953-13.029,32.028-32.236,32.028-55.544c0-35.275-1.439-67.554-3.826-97.092c0.118-0.031,0.237-0.063,0.349-0.094
	c6.449-1.737,21.55-5.805,35.814-19.502c17.27-16.583,27.722-41.649,31.065-74.503C418.811,218.05,408.837,185.238,400.824,158.873z
	 M256.276,496c-4.18,0-8.328-0.213-12.411-0.61c1.173-2.382,2.296-4.965,3.453-7.64c2.049-4.737,6.274-14.495,8.96-15.702
	c2.686,1.207,6.911,10.965,8.96,15.702c1.157,2.674,2.279,5.257,3.453,7.639C264.607,495.787,260.457,496,256.276,496z
	 M311.801,481.956c-7.185,4.468-15.845,7.981-25.329,10.377c-0.424-0.106-0.857-0.183-1.299-0.218
	c-1.53-2.118-3.728-7.2-5.25-10.719C275.028,470.082,268.935,456,256.278,456s-18.75,14.082-23.645,25.396
	c-1.522,3.519-3.721,8.601-5.25,10.719c-0.443,0.035-0.876,0.112-1.301,0.219c-9.485-2.396-18.146-5.91-25.332-10.378
	c-16.242-10.1-24.477-24.216-24.477-41.956c0-137.063,21.163-224.854,36.615-288.955c0.074-0.309,0.145-0.604,0.219-0.91
	C223.601,157.793,240.533,168,256.273,168c15.742,0,32.674-10.209,43.165-17.867c0.076,0.314,0.148,0.616,0.225,0.932
	c15.453,64.1,36.615,151.887,36.615,288.936C336.278,457.74,328.043,471.856,311.801,481.956z M399.763,247.19
	c-6.428,63.166-38.951,75.586-52.737,79.518c-7.496-78.528-21.494-136.607-31.808-179.394c-1.092-4.531-2.149-8.918-3.162-13.167
	c-0.006-0.026-0.016-0.052-0.023-0.078c-0.011-0.044-0.026-0.086-0.038-0.129c-0.416-1.563-1.267-2.897-2.395-3.904
	c-0.036-0.032-0.074-0.061-0.111-0.092c-0.157-0.136-0.317-0.267-0.484-0.39c-0.076-0.057-0.155-0.105-0.233-0.159
	c-0.133-0.091-0.267-0.181-0.405-0.264c-0.097-0.058-0.196-0.109-0.295-0.163c-0.127-0.069-0.255-0.138-0.387-0.2
	c-0.102-0.048-0.206-0.091-0.31-0.134c-0.137-0.058-0.273-0.115-0.413-0.165c-0.095-0.034-0.191-0.063-0.287-0.093
	c-0.154-0.049-0.308-0.096-0.465-0.135c-0.085-0.021-0.17-0.038-0.256-0.057c-0.168-0.036-0.337-0.07-0.508-0.096
	c-0.082-0.012-0.164-0.02-0.245-0.028c-0.173-0.021-0.345-0.039-0.52-0.048c-0.094-0.005-0.188-0.004-0.282-0.005
	c-0.159-0.003-0.317-0.005-0.478,0.002c-0.133,0.006-0.265,0.021-0.397,0.033c-0.12,0.011-0.239,0.019-0.36,0.036
	c-0.205,0.028-0.407,0.068-0.609,0.113c-0.045,0.01-0.089,0.014-0.134,0.024c-0.006,0.001-0.012,0.004-0.019,0.006
	c-0.956,0.229-1.876,0.64-2.715,1.229c-0.052,0.036-0.107,0.068-0.158,0.105c-0.125,0.093-0.245,0.197-0.366,0.298
	c-0.083,0.069-0.169,0.134-0.248,0.206c-0.017,0.015-0.035,0.026-0.051,0.042c-6.643,6.09-27.243,21.896-42.589,21.896
	c-15.28,0-35.931-15.81-42.594-21.897c-0.008-0.007-0.016-0.013-0.024-0.021c-0.164-0.148-0.337-0.289-0.514-0.425
	c-0.035-0.026-0.067-0.058-0.103-0.083c-0.164-0.122-0.337-0.233-0.511-0.343c-0.053-0.033-0.103-0.071-0.156-0.104
	c-0.099-0.059-0.204-0.108-0.306-0.163c-0.134-0.072-0.266-0.148-0.403-0.213c-0.029-0.014-0.06-0.023-0.088-0.037
	c-0.216-0.098-0.434-0.188-0.656-0.266c-0.02-0.007-0.041-0.011-0.061-0.018c-0.233-0.08-0.469-0.149-0.707-0.207
	c-0.008-0.002-0.016-0.005-0.023-0.007c-0.054-0.013-0.108-0.019-0.163-0.03c-0.194-0.042-0.388-0.081-0.583-0.108
	c-0.113-0.016-0.226-0.022-0.338-0.034c-0.142-0.014-0.284-0.029-0.427-0.035c-0.141-0.006-0.281-0.003-0.421-0.002
	c-0.117,0.002-0.232,0-0.349,0.007c-0.147,0.008-0.292,0.024-0.437,0.04c-0.112,0.012-0.225,0.022-0.336,0.039
	c-0.137,0.021-0.271,0.049-0.406,0.077c-0.123,0.024-0.245,0.049-0.366,0.08c-0.115,0.029-0.229,0.064-0.342,0.099
	c-0.139,0.043-0.277,0.085-0.414,0.135c-0.093,0.033-0.184,0.072-0.275,0.109c-0.151,0.062-0.302,0.124-0.45,0.194
	c-0.078,0.038-0.153,0.079-0.23,0.12c-0.152,0.078-0.303,0.158-0.451,0.248c-0.078,0.047-0.153,0.1-0.23,0.149
	c-0.136,0.09-0.273,0.179-0.405,0.277c-0.097,0.071-0.189,0.151-0.283,0.228c-0.104,0.085-0.209,0.166-0.309,0.257
	c-0.134,0.122-0.261,0.251-0.387,0.382c-0.048,0.05-0.1,0.094-0.147,0.146c-0.007,0.007-0.012,0.015-0.019,0.022
	c-0.153,0.168-0.296,0.344-0.435,0.525c-0.024,0.031-0.052,0.061-0.075,0.092c-0.123,0.165-0.235,0.339-0.345,0.514
	c-0.033,0.053-0.071,0.102-0.102,0.154c-0.057,0.096-0.104,0.196-0.157,0.294c-0.075,0.138-0.153,0.274-0.22,0.416
	c-0.011,0.023-0.019,0.048-0.029,0.071c-0.101,0.221-0.193,0.445-0.273,0.674c-0.006,0.016-0.01,0.034-0.016,0.051
	c-0.081,0.236-0.151,0.475-0.209,0.716c-0.002,0.008-0.005,0.016-0.007,0.023c-1.011,4.243-2.066,8.623-3.157,13.147
	c-10.321,42.817-24.332,100.948-31.823,179.565c-13.46-3.765-46.761-15.673-53.273-79.67c-2.805-27.563,6.65-58.67,14.247-83.664
	c5.253-17.281,9.789-32.206,9.789-43.526c0-29.286,7.574-56.702,14.701-67.63C169.643,23.746,225.635,16.048,256,16.002
	c30.365,0.046,86.357,7.744,105.026,36.368c7.126,10.928,14.701,38.344,14.701,67.63c0,11.32,4.536,26.245,9.789,43.526
	C393.112,188.521,402.567,219.627,399.763,247.19z"/>
<path d="M224.273,216c-4.418,0-8,3.582-8,8v8c0,4.418,3.582,8,8,8s8-3.582,8-8v-8C232.273,219.582,228.692,216,224.273,216z"/>
<path d="M288.273,216c-4.418,0-8,3.582-8,8v8c0,4.418,3.582,8,8,8s8-3.582,8-8v-8C296.273,219.582,292.692,216,288.273,216z"/>
<g>
</g>
<g>
</g>
<g>
</g>
<g>
</g>
<g>
</g>
<g>
</g>
<g>
</g>
<g>
</g>
<g>
</g>
<g>
</g>
<g>
</g>
<g>
</g>
<g>
</g>
<g>
</g>
<g>
</g>
</svg>
